HIERARCHY
ROOT mixamorig:Hips
{
	OFFSET 0.000000 201.639420 0.000000
	CHANNELS 6 Xposition Yposition Zposition Xrotation Yrotation Zrotation
	JOINT mixamorig:Spine
	{
		OFFSET 0.006200 19.524994 -2.481800
		CHANNELS 3 Xrotation Yrotation Zrotation
		JOINT mixamorig:Spine1
		{
			OFFSET -0.000900 22.835007 -2.825400
			CHANNELS 3 Xrotation Yrotation Zrotation
			JOINT mixamorig:Spine2
			{
				OFFSET -0.020600 26.552490 -3.193300
				CHANNELS 3 Xrotation Yrotation Zrotation
				JOINT mixamorig:Neck
				{
					OFFSET -0.060000 30.701813 1.352200
					CHANNELS 3 Xrotation Yrotation Zrotation
					JOINT mixamorig:Head
					{
						OFFSET -0.087200 22.547607 3.670900
						CHANNELS 3 Xrotation Yrotation Zrotation
						JOINT mixamorig:HeadTop_End
						{
							OFFSET -0.830600 40.355194 7.893500
							CHANNELS 3 Xrotation Yrotation Zrotation
							End Site
							{
								OFFSET 0.000000 30.592346 0.000000
							}
						}
						JOINT mixamorig:RightEye
						{
							OFFSET -6.302100 18.118591 16.197100
							CHANNELS 3 Xrotation Yrotation Zrotation
							End Site
							{
								OFFSET 0.000000 30.592346 0.000000
							}
						}
						JOINT mixamorig:LeftEye
						{
							OFFSET 6.741500 18.382690 16.401899
							CHANNELS 3 Xrotation Yrotation Zrotation
							End Site
							{
								OFFSET 0.000000 30.592346 0.000000
							}
						}
					}
				}
				JOINT mixamorig:LeftShoulder
				{
					OFFSET 11.924900 18.230499 1.425400
					CHANNELS 3 Xrotation Yrotation Zrotation
					JOINT mixamorig:LeftArm
					{
						OFFSET 25.435989 -0.697632 -5.229300
						CHANNELS 3 Xrotation Yrotation Zrotation
						JOINT mixamorig:LeftForeArm
						{
							OFFSET 54.684776 0.000000 0.000000
							CHANNELS 3 Xrotation Yrotation Zrotation
							JOINT mixamorig:LeftHand
							{
								OFFSET 55.098175 0.000000 0.000000
								CHANNELS 3 Xrotation Yrotation Zrotation
								JOINT mixamorig:LeftHandMiddle1
								{
									OFFSET 23.369751 0.000000 0.000000
									CHANNELS 3 Xrotation Yrotation Zrotation
									JOINT mixamorig:LeftHandMiddle2
									{
										OFFSET 6.378677 0.000000 0.000000
										CHANNELS 3 Xrotation Yrotation Zrotation
										JOINT mixamorig:LeftHandMiddle3
										{
											OFFSET 6.148331 0.000000 0.000000
											CHANNELS 3 Xrotation Yrotation Zrotation
											JOINT mixamorig:LeftHandMiddle4
											{
												OFFSET 6.582504 0.000000 0.000000
												CHANNELS 3 Xrotation Yrotation Zrotation
												End Site
												{
													OFFSET -1.168900 6.395691 1.028606
												}
											}
										}
									}
								}
								JOINT mixamorig:LeftHandThumb1
								{
									OFFSET 7.235672 -3.848206 5.434273
									CHANNELS 3 Xrotation Yrotation Zrotation
									JOINT mixamorig:LeftHandThumb2
									{
										OFFSET 6.568451 -3.792297 3.792300
										CHANNELS 3 Xrotation Yrotation Zrotation
										JOINT mixamorig:LeftHandThumb3
										{
											OFFSET 6.063080 -3.500519 3.500518
											CHANNELS 3 Xrotation Yrotation Zrotation
											JOINT mixamorig:LeftHandThumb4
											{
												OFFSET 4.793182 -2.767334 2.767349
												CHANNELS 3 Xrotation Yrotation Zrotation
												End Site
												{
													OFFSET 0.101639 6.054260 1.275483
												}
											}
										}
									}
								}
								JOINT mixamorig:LeftHandIndex1
								{
									OFFSET 23.101074 -0.309540 4.992809
									CHANNELS 3 Xrotation Yrotation Zrotation
									JOINT mixamorig:LeftHandIndex2
									{
										OFFSET 6.226883 0.000000 0.000000
										CHANNELS 3 Xrotation Yrotation Zrotation
										JOINT mixamorig:LeftHandIndex3
										{
											OFFSET 6.094330 0.000000 0.000000
											CHANNELS 3 Xrotation Yrotation Zrotation
											JOINT mixamorig:LeftHandIndex4
											{
												OFFSET 5.482605 0.000000 0.000000
												CHANNELS 3 Xrotation Yrotation Zrotation
												End Site
												{
													OFFSET -1.427902 5.233032 0.797164
												}
											}
										}
									}
								}
								JOINT mixamorig:LeftHandRing1
								{
									OFFSET 22.299240 0.021149 -3.964172
									CHANNELS 3 Xrotation Yrotation Zrotation
									JOINT mixamorig:LeftHandRing2
									{
										OFFSET 6.321869 0.000000 0.000000
										CHANNELS 3 Xrotation Yrotation Zrotation
										JOINT mixamorig:LeftHandRing3
										{
											OFFSET 5.899796 0.000000 0.000000
											CHANNELS 3 Xrotation Yrotation Zrotation
											JOINT mixamorig:LeftHandRing4
											{
												OFFSET 6.517899 0.000000 0.000000
												CHANNELS 3 Xrotation Yrotation Zrotation
												End Site
												{
													OFFSET -1.637299 6.232208 0.980890
												}
											}
										}
									}
								}
								JOINT mixamorig:LeftHandPinky1
								{
									OFFSET 20.463791 -0.302338 -8.562233
									CHANNELS 3 Xrotation Yrotation Zrotation
									JOINT mixamorig:LeftHandPinky2
									{
										OFFSET 6.908646 0.000000 0.000000
										CHANNELS 3 Xrotation Yrotation Zrotation
										JOINT mixamorig:LeftHandPinky3
										{
											OFFSET 4.622849 0.000000 0.000000
											CHANNELS 3 Xrotation Yrotation Zrotation
											JOINT mixamorig:LeftHandPinky4
											{
												OFFSET 5.216080 0.000000 0.000000
												CHANNELS 3 Xrotation Yrotation Zrotation
												End Site
												{
													OFFSET -0.606308 5.116241 0.814926
												}
											}
										}
									}
								}
							}
						}
					}
				}
				JOINT mixamorig:RightShoulder
				{
					OFFSET -12.001300 18.284088 1.348900
					CHANNELS 3 Xrotation Yrotation Zrotation
					JOINT mixamorig:RightArm
					{
						OFFSET -25.308500 -0.751312 -5.164599
						CHANNELS 3 Xrotation Yrotation Zrotation
						JOINT mixamorig:RightForeArm
						{
							OFFSET -54.684429 0.000000 0.000000
							CHANNELS 3 Xrotation Yrotation Zrotation
							JOINT mixamorig:RightHand
							{
								OFFSET -55.150291 0.000000 0.000000
								CHANNELS 3 Xrotation Yrotation Zrotation
								JOINT mixamorig:RightHandMiddle1
								{
									OFFSET -23.317566 0.000000 0.000000
									CHANNELS 3 Xrotation Yrotation Zrotation
									JOINT mixamorig:RightHandMiddle2
									{
										OFFSET -6.378403 0.000000 0.000000
										CHANNELS 3 Xrotation Yrotation Zrotation
										JOINT mixamorig:RightHandMiddle3
										{
											OFFSET -6.148193 0.000000 0.000000
											CHANNELS 3 Xrotation Yrotation Zrotation
											JOINT mixamorig:RightHandMiddle4
											{
												OFFSET -6.583389 0.000000 0.000000
												CHANNELS 3 Xrotation Yrotation Zrotation
												End Site
												{
													OFFSET 1.171692 6.395905 1.029786
												}
											}
										}
									}
								}
								JOINT mixamorig:RightHandThumb1
								{
									OFFSET -7.190521 -3.860474 5.435846
									CHANNELS 3 Xrotation Yrotation Zrotation
									JOINT mixamorig:RightHandThumb2
									{
										OFFSET -6.567429 -3.791718 3.791708
										CHANNELS 3 Xrotation Yrotation Zrotation
										JOINT mixamorig:RightHandThumb3
										{
											OFFSET -6.062469 -3.500153 3.500166
											CHANNELS 3 Xrotation Yrotation Zrotation
											JOINT mixamorig:RightHandThumb4
											{
												OFFSET -4.792618 -2.767029 2.767022
												CHANNELS 3 Xrotation Yrotation Zrotation
												End Site
												{
													OFFSET -0.100327 6.053253 1.276754
												}
											}
										}
									}
								}
								JOINT mixamorig:RightHandIndex1
								{
									OFFSET -23.048981 -0.310791 4.992554
									CHANNELS 3 Xrotation Yrotation Zrotation
									JOINT mixamorig:RightHandIndex2
									{
										OFFSET -6.227539 0.000000 0.000000
										CHANNELS 3 Xrotation Yrotation Zrotation
										JOINT mixamorig:RightHandIndex3
										{
											OFFSET -6.095047 0.000000 0.000000
											CHANNELS 3 Xrotation Yrotation Zrotation
											JOINT mixamorig:RightHandIndex4
											{
												OFFSET -5.484772 0.000000 0.000000
												CHANNELS 3 Xrotation Yrotation Zrotation
												End Site
												{
													OFFSET 1.420593 5.237305 0.797056
												}
											}
										}
									}
								}
								JOINT mixamorig:RightHandRing1
								{
									OFFSET -22.246323 0.020569 -3.963762
									CHANNELS 3 Xrotation Yrotation Zrotation
									JOINT mixamorig:RightHandRing2
									{
										OFFSET -6.322128 0.000000 0.000000
										CHANNELS 3 Xrotation Yrotation Zrotation
										JOINT mixamorig:RightHandRing3
										{
											OFFSET -5.900024 0.000000 0.000000
											CHANNELS 3 Xrotation Yrotation Zrotation
											JOINT mixamorig:RightHandRing4
											{
												OFFSET -6.518356 0.000000 0.000000
												CHANNELS 3 Xrotation Yrotation Zrotation
												End Site
												{
													OFFSET 1.636398 6.232697 0.982186
												}
											}
										}
									}
								}
								JOINT mixamorig:RightHandPinky1
								{
									OFFSET -20.411011 -0.303314 -8.561701
									CHANNELS 3 Xrotation Yrotation Zrotation
									JOINT mixamorig:RightHandPinky2
									{
										OFFSET -6.907349 0.000000 0.000000
										CHANNELS 3 Xrotation Yrotation Zrotation
										JOINT mixamorig:RightHandPinky3
										{
											OFFSET -4.623840 0.000000 0.000000
											CHANNELS 3 Xrotation Yrotation Zrotation
											JOINT mixamorig:RightHandPinky4
											{
												OFFSET -5.218353 0.000000 0.000000
												CHANNELS 3 Xrotation Yrotation Zrotation
												End Site
												{
													OFFSET 0.602097 5.118835 0.816273
												}
											}
										}
									}
								}
							}
						}
					}
				}
			}
		}
	}
	JOINT mixamorig:LeftUpLeg
	{
		OFFSET 18.168400 -13.561905 -0.039000
		CHANNELS 3 Xrotation Yrotation Zrotation
		JOINT mixamorig:LeftLeg
		{
			OFFSET 0.577358 -80.825211 -3.695000
			CHANNELS 3 Xrotation Yrotation Zrotation
			JOINT mixamorig:LeftFoot
			{
				OFFSET -0.577356 -83.370262 -6.520700
				CHANNELS 3 Xrotation Yrotation Zrotation
				JOINT mixamorig:LeftToeBase
				{
					OFFSET 0.750401 -20.798306 25.135401
					CHANNELS 3 Xrotation Yrotation Zrotation
					JOINT mixamorig:LeftToe_End
					{
						OFFSET -0.000500 0.001200 19.917799
						CHANNELS 3 Xrotation Yrotation Zrotation
						End Site
						{
							OFFSET 0.000000 19.917805 0.000000
						}
					}
				}
			}
		}
	}
	JOINT mixamorig:RightUpLeg
	{
		OFFSET -18.162500 -13.585098 -0.041000
		CHANNELS 3 Xrotation Yrotation Zrotation
		JOINT mixamorig:RightLeg
		{
			OFFSET -0.595024 -80.945297 -3.631900
			CHANNELS 3 Xrotation Yrotation Zrotation
			JOINT mixamorig:RightFoot
			{
				OFFSET 0.595024 -83.218193 -6.561200
				CHANNELS 3 Xrotation Yrotation Zrotation
				JOINT mixamorig:RightToeBase
				{
					OFFSET -0.753601 -20.807106 25.115000
					CHANNELS 3 Xrotation Yrotation Zrotation
					JOINT mixamorig:RightToe_End
					{
						OFFSET 0.000299 0.001700 19.918200
						CHANNELS 3 Xrotation Yrotation Zrotation
						End Site
						{
							OFFSET 0.000000 19.918203 0.000000
						}
					}
				}
			}
		}
	}
}
MOTION
Frames: 6
Frame Time: 0.033333
-1.007097 153.553375 -2.579544 -15.671589 0.042019 -6.566231 21.484234 0.477897 4.804804 6.335935 -0.141464 1.805068 6.335855 -0.103650 1.804007 4.640321 -0.760104 1.388689 -7.805571 -1.344845 -3.140918 -0.000000 0.000001 -0.000000 -0.000000 0.000001 -0.000000 -0.000000 0.000001 -0.000000 0.586517 -3.324990 -7.985100 -27.214738 -36.298798 -66.101430 -0.000004 -28.266784 -0.000000 26.643916 -4.714363 46.177625 -0.095689 -1.004152 -4.401379 0.614858 2.848903 -24.353272 0.057803 0.892127 -7.413849 -0.000000 0.000000 -0.000001 1.252321 -1.347059 5.133541 4.902634 12.386861 -0.065193 -0.293901 2.512395 2.362580 0.000000 0.000001 0.000000 -1.237525 -5.971575 -11.069584 0.584538 2.780996 -23.735858 0.113894 1.249767 -10.414824 -0.000000 -0.000000 -0.000001 0.040154 1.845842 -1.200190 0.405206 2.331436 -19.716540 0.300317 2.015099 -16.950936 -0.000001 0.000001 0.000002 -0.534225 12.617372 3.214801 0.610355 -1.234964 -24.598414 0.030852 0.652408 -5.414320 -0.000001 0.000001 0.000001 0.576998 0.044290 9.300756 -43.720208 30.153035 77.422687 0.000006 18.743682 0.000005 48.030474 10.334666 -38.546794 0.083295 -1.341420 17.604821 0.329319 -2.118477 17.670113 0.030393 -0.650814 5.348268 0.000001 0.000001 0.000001 -1.602269 -0.553293 -0.493688 13.429582 -16.415041 3.088468 -5.759028 -11.880506 -5.230570 -0.000001 0.000007 0.000002 -2.994864 2.852579 32.244138 0.165820 -1.512481 12.513135 0.011868 -0.406811 3.340136 -0.000001 -0.000000 0.000000 1.203832 -5.694258 13.726249 0.207584 -1.689625 14.007548 0.032147 -0.669247 5.500315 0.000001 -0.000001 0.000002 1.758419 -12.279879 7.865408 0.202895 -1.670701 13.847603 0.079477 -1.050452 8.653262 0.000002 0.000001 -0.000003 -53.730298 -2.880183 10.750436 57.657827 -1.384175 6.320935 10.903461 -0.331686 -6.626936 -1.531381 -0.000000 -0.000001 0.000000 0.000000 -0.000000 -50.450963 -1.300357 -2.545085 58.403725 -6.763030 -0.350459 6.764542 0.172030 5.524522 0.833237 -0.000002 -0.000001 -0.000000 -0.000002 -0.000000 
-0.967285 153.535950 -2.604973 -15.728252 0.050079 -6.603272 21.479147 0.474208 4.821577 6.333506 -0.142999 1.811877 6.333418 -0.104776 1.810816 4.673421 -0.748486 1.340283 -7.693053 -1.372956 -2.992238 0.000001 -0.000000 0.000000 0.000001 -0.000000 0.000000 0.000001 -0.000000 0.000000 0.587005 -3.349159 -8.068520 -27.086693 -36.515158 -65.912787 -0.000006 -28.254983 -0.000013 26.728357 -4.687664 46.195202 -0.095696 -1.004178 -4.401389 0.614860 2.848899 -24.353270 0.057804 0.892140 -7.413849 0.000001 0.000000 0.000001 1.252323 -1.347072 5.133537 4.902630 12.386823 -0.065197 -0.293902 2.512385 2.362583 0.000001 0.000001 0.000000 -1.237526 -5.971598 -11.069607 0.584534 2.781030 -23.735841 0.113902 1.249772 -10.414830 -0.000000 -0.000001 -0.000003 0.040160 1.845843 -1.200196 0.405206 2.331442 -19.716535 0.300312 2.015089 -16.950926 -0.000004 0.000000 -0.000001 -0.534220 12.617357 3.214796 0.610360 -1.234971 -24.598416 0.030841 0.652398 -5.414340 0.000000 -0.000000 -0.000002 0.582065 0.071746 9.461876 -43.707501 30.247879 77.272355 -0.000004 18.675513 0.000031 47.989770 10.357196 -38.476037 0.083306 -1.341439 17.604807 0.329323 -2.118467 17.670111 0.030405 -0.650805 5.348257 -0.000001 0.000001 0.000001 -1.602262 -0.553315 -0.493698 13.429577 -16.415021 3.088472 -5.759026 -11.880504 -5.230571 -0.000001 -0.000000 -0.000001 -2.994866 2.852566 32.244135 0.165851 -1.512491 12.513122 0.011862 -0.406814 3.340141 -0.000000 0.000001 0.000001 1.203830 -5.694278 13.726246 0.207594 -1.689623 14.007547 0.032151 -0.669257 5.500315 -0.000001 0.000002 -0.000001 1.758410 -12.279894 7.865401 0.202896 -1.670687 13.847595 0.079469 -1.050438 8.653268 0.000001 0.000002 -0.000001 -53.699046 -2.886965 10.771015 57.684376 -1.397570 6.323502 10.899156 -0.329493 -6.605763 -1.529608 -0.000001 -0.000002 0.000000 -0.000000 -0.000000 -50.389946 -1.315883 -2.530153 58.387872 -6.766805 -0.347185 6.781527 0.173312 5.535080 0.817979 -0.000000 -0.000001 -0.000000 0.000001 0.000000 
-0.937986 153.522781 -2.625061 -15.770207 0.057648 -6.632975 21.478590 0.473075 4.829082 6.332720 -0.143429 1.814971 6.332641 -0.105025 1.813914 4.703985 -0.742229 1.320521 -7.632509 -1.383604 -2.908103 0.000001 0.000000 0.000000 0.000001 0.000000 0.000000 0.000001 0.000000 0.000000 0.587257 -3.362931 -8.118289 -26.998761 -36.645382 -65.789338 0.000003 -28.270423 0.000005 26.766586 -4.663440 46.208091 -0.095692 -1.004176 -4.401384 0.614867 2.848924 -24.353251 0.057803 0.892126 -7.413855 -0.000000 -0.000000 -0.000000 1.252321 -1.347065 5.133539 4.902633 12.386840 -0.065197 -0.293905 2.512399 2.362590 0.000001 -0.000001 -0.000001 -1.237512 -5.971593 -11.069596 0.584540 2.781033 -23.735840 0.113890 1.249759 -10.414828 0.000002 -0.000000 -0.000003 0.040158 1.845860 -1.200191 0.405209 2.331435 -19.716545 0.300305 2.015093 -16.950916 -0.000003 -0.000001 0.000005 -0.534225 12.617367 3.214795 0.610358 -1.234989 -24.598412 0.030846 0.652400 -5.414325 -0.000002 -0.000001 -0.000001 0.584812 0.087423 9.550164 -43.739623 30.317154 77.208452 -0.000015 18.561536 0.000024 47.948536 10.391703 -38.467564 0.083303 -1.341423 17.604818 0.329315 -2.118481 17.670114 0.030399 -0.650802 5.348266 0.000001 -0.000000 0.000003 -1.602267 -0.553305 -0.493691 13.429579 -16.415040 3.088477 -5.759030 -11.880518 -5.230570 -0.000001 0.000005 0.000001 -2.994865 2.852591 32.244131 0.165833 -1.512480 12.513123 0.011852 -0.406831 3.340120 -0.000000 -0.000001 0.000002 1.203832 -5.694265 13.726247 0.207584 -1.689627 14.007558 0.032146 -0.669254 5.500310 0.000001 -0.000001 -0.000001 1.758413 -12.279868 7.865412 0.202900 -1.670733 13.847590 0.079475 -1.050414 8.653264 0.000001 0.000000 -0.000001 -53.676558 -2.893632 10.786398 57.703713 -1.408111 6.326718 10.897195 -0.328025 -6.590346 -1.527586 -0.000001 -0.000003 0.000000 -0.000000 -0.000000 -50.344173 -1.329430 -2.518726 58.375175 -6.772191 -0.343298 6.794843 0.174337 5.541595 0.815974 0.000004 -0.000000 0.000000 -0.000000 -0.000000 
-0.920502 153.514328 -2.639851 -15.794602 0.062337 -6.656053 21.482425 0.475167 4.828335 6.333180 -0.142581 1.814686 6.333085 -0.104222 1.813647 4.737816 -0.741043 1.327684 -7.616457 -1.385801 -2.861648 0.000001 -0.000001 0.000000 0.000001 -0.000001 0.000000 0.000001 -0.000001 0.000000 0.587352 -3.368097 -8.138065 -26.941442 -36.691616 -65.721781 0.000020 -28.326869 0.000018 26.769064 -4.622681 46.194762 -0.095698 -1.004183 -4.401384 0.614868 2.848925 -24.353258 0.057805 0.892122 -7.413852 -0.000001 0.000001 -0.000001 1.252316 -1.347062 5.133545 4.902629 12.386834 -0.065194 -0.293905 2.512392 2.362580 -0.000001 -0.000002 -0.000001 -1.237529 -5.971572 -11.069590 0.584540 2.781002 -23.735860 0.113893 1.249755 -10.414831 -0.000004 -0.000001 0.000001 0.040158 1.845863 -1.200188 0.405206 2.331448 -19.716528 0.300304 2.015092 -16.950928 -0.000002 -0.000000 -0.000000 -0.534222 12.617375 3.214801 0.610366 -1.234978 -24.598417 0.030834 0.652401 -5.414345 0.000001 0.000000 0.000001 0.586069 0.094074 9.592473 -43.768180 30.407299 77.176145 0.000003 18.462435 -0.000012 47.865761 10.421503 -38.483953 0.083300 -1.341411 17.604811 0.329325 -2.118486 17.670102 0.030394 -0.650808 5.348252 0.000003 -0.000001 -0.000000 -1.602266 -0.553280 -0.493682 13.429579 -16.415040 3.088475 -5.759032 -11.880509 -5.230569 0.000000 0.000004 0.000001 -2.994860 2.852592 32.244128 0.165832 -1.512485 12.513122 0.011857 -0.406811 3.340122 -0.000000 0.000001 0.000001 1.203833 -5.694258 13.726249 0.207598 -1.689642 14.007535 0.032144 -0.669259 5.500316 0.000000 0.000000 -0.000002 1.758408 -12.279871 7.865405 0.202899 -1.670708 13.847590 0.079478 -1.050437 8.653269 0.000000 -0.000000 0.000000 -53.664854 -2.901899 10.797639 57.714853 -1.413967 6.331101 10.898153 -0.327529 -6.582808 -1.526360 -0.000004 -0.000001 -0.000000 -0.000000 -0.000000 -50.316204 -1.341890 -2.509742 58.364007 -6.776768 -0.337926 6.805800 0.174966 5.542342 0.828105 -0.000001 -0.000000 0.000000 -0.000001 -0.000000 
-0.911654 153.507645 -2.653233 -15.808403 0.067467 -6.673982 21.495283 0.480505 4.824312 6.336711 -0.140494 1.813317 6.336607 -0.102201 1.812294 4.780661 -0.744261 1.349427 -7.621525 -1.402967 -2.806609 0.000000 0.000000 -0.000000 0.000000 0.000000 -0.000000 0.000000 0.000000 -0.000000 0.587383 -3.370096 -8.146956 -26.887863 -36.697578 -65.666634 -0.000000 -28.438162 -0.000020 26.744144 -4.557106 46.158125 -0.095701 -1.004161 -4.401383 0.614862 2.848896 -24.353263 0.057793 0.892141 -7.413842 -0.000000 -0.000001 0.000003 1.252327 -1.347058 5.133547 4.902630 12.386885 -0.065190 -0.293908 2.512362 2.362576 0.000001 -0.000000 -0.000000 -1.237520 -5.971573 -11.069596 0.584544 2.781021 -23.735847 0.113909 1.249766 -10.414822 -0.000001 0.000002 -0.000005 0.040154 1.845854 -1.200195 0.405208 2.331425 -19.716548 0.300299 2.015096 -16.950938 -0.000003 0.000002 -0.000002 -0.534230 12.617367 3.214795 0.610350 -1.235000 -24.598431 0.030847 0.652421 -5.414313 0.000000 -0.000002 0.000003 0.586749 0.098104 9.616117 -43.756910 30.513641 77.125287 0.000001 18.442928 -0.000029 47.740072 10.433468 -38.476447 0.083300 -1.341407 17.604818 0.329327 -2.118484 17.670114 0.030405 -0.650805 5.348253 0.000005 -0.000001 0.000002 -1.602272 -0.553303 -0.493690 13.429580 -16.415019 3.088478 -5.759026 -11.880526 -5.230572 -0.000001 0.000003 0.000000 -2.994870 2.852587 32.244135 0.165845 -1.512493 12.513123 0.011869 -0.406816 3.340129 -0.000002 -0.000002 -0.000003 1.203833 -5.694266 13.726242 0.207584 -1.689632 14.007553 0.032145 -0.669254 5.500312 -0.000002 0.000000 -0.000001 1.758411 -12.279868 7.865402 0.202899 -1.670729 13.847587 0.079478 -1.050443 8.653265 -0.000002 0.000002 -0.000003 -53.660336 -2.909902 10.804810 57.719982 -1.418466 6.336843 10.901970 -0.327635 -6.579674 -1.527152 -0.000007 0.000001 -0.000000 0.000000 -0.000000 -50.299914 -1.352428 -2.504114 58.354834 -6.779841 -0.330617 6.816587 0.175397 5.540077 0.842473 -0.000004 -0.000002 -0.000000 0.000000 -0.000000 
-0.904020 153.499802 -2.670227 -15.828016 0.079353 -6.687886 21.523060 0.485363 4.818662 6.345755 -0.138598 1.811376 6.345639 -0.100329 1.810368 4.842569 -0.751566 1.378286 -7.616676 -1.452144 -2.707498 -0.000001 0.000000 -0.000000 -0.000001 0.000000 -0.000000 -0.000001 0.000000 -0.000000 0.587451 -3.374474 -8.160735 -26.809862 -36.703517 -65.578928 0.000019 -28.614191 0.000021 26.701187 -4.463839 46.102923 -0.095702 -1.004192 -4.401396 0.614861 2.848904 -24.353265 0.057799 0.892140 -7.413851 -0.000001 0.000001 -0.000002 1.252319 -1.347074 5.133541 4.902631 12.386857 -0.065190 -0.293905 2.512369 2.362575 -0.000001 -0.000002 -0.000001 -1.237522 -5.971597 -11.069594 0.584542 2.781012 -23.735858 0.113895 1.249764 -10.414830 0.000001 -0.000000 0.000005 0.040146 1.845846 -1.200197 0.405203 2.331394 -19.716543 0.300309 2.015098 -16.950930 -0.000001 -0.000002 0.000006 -0.534220 12.617361 3.214784 0.610346 -1.234987 -24.598407 0.030852 0.652416 -5.414317 -0.000003 0.000002 -0.000001 0.587669 0.104640 9.648186 -43.712094 30.628610 77.036864 0.000000 18.498973 -0.000008 47.586006 10.433927 -38.431415 0.083309 -1.341430 17.604809 0.329323 -2.118473 17.670111 0.030403 -0.650787 5.348264 0.000001 0.000000 -0.000002 -1.602263 -0.553318 -0.493698 13.429579 -16.415031 3.088472 -5.759028 -11.880498 -5.230568 -0.000001 0.000004 -0.000000 -2.994853 2.852567 32.244128 0.165831 -1.512487 12.513133 0.011871 -0.406818 3.340118 0.000001 -0.000002 0.000003 1.203835 -5.694295 13.726240 0.207587 -1.689623 14.007550 0.032143 -0.669244 5.500312 0.000000 0.000001 -0.000002 1.758419 -12.279890 7.865402 0.202896 -1.670717 13.847596 0.079484 -1.050411 8.653261 0.000000 -0.000001 0.000001 -53.649982 -2.915800 10.804664 57.722277 -1.423845 6.344454 10.908222 -0.327839 -6.576232 -1.530049 -0.000007 0.000001 0.000000 0.000000 0.000000 -50.278030 -1.361523 -2.505074 58.347212 -6.780223 -0.322803 6.826406 0.175803 5.539522 0.847479 -0.000006 -0.000002 -0.000000 -0.000000 0.000000 
